<svg width="512" height="512" viewBox="0 0 512 512" xmlns="http://www.w3.org/2000/svg"><defs><pattern id="satori_pattern_id_0" x="0" y="0" width="1" height="1" patternUnits="objectBoundingBox"><linearGradient id="satori_biid_0" x1="0" y1="0" x2="0" y2="1" spreadMethod="pad"><stop offset="0%" stop-color="#7f22fe"/><stop offset="25%" stop-color="#6a20c5"/><stop offset="50%" stop-color="#551ea2"/><stop offset="75%" stop-color="#401c7a"/><stop offset="100%" stop-color="#2c1a49"/></linearGradient><rect x="0" y="0" width="512" height="512" fill="url(#satori_biid_0)"/></pattern></defs><mask id="satori_om-id"><rect x="0" y="0" width="512" height="512" fill="#fff"/></mask><path x="0" y="0" width="512" height="512" fill="url(#satori_pattern_id_0)" d="M80,0 h352 a80,80 0 0 1 80,80 v352 a80,80 0 0 1 -80,80 h-352 a80,80 0 0 1 -80,-80 v-352 a80,80 0 0 1 80,-80"/><clipPath id="satori_cp-id-0"><rect x="0" y="0" width="512" height="512"/></clipPath><mask id="satori_om-id-0"><rect x="0" y="0" width="512" height="512" fill="#fff"/></mask><image x="0" y="0" width="512" height="512" href="data:image/svg+xml;utf8,%3Csvg  xmlns=%22http://www.w3.org/2000/svg%22 fill=%22none%22 stroke=%22%23e0d4ff%22 stroke-width=%222%22 stroke-linecap=%22round%22 stroke-linejoin=%22round%22 width=%22NaN%22 height=%22NaN%22 viewBox=%22-8 -8 40 40%22%3E%3Cpath d=%22M12 6V2H8%22%3E%3C/path%3E%3Cpath d=%22m8 18-4 4V8a2 2 0 0 1 2-2h12a2 2 0 0 1 2 2v8a2 2 0 0 1-2 2Z%22%3E%3C/path%3E%3Cpath d=%22M2 12h2%22%3E%3C/path%3E%3Cpath d=%22M9 11v2%22%3E%3C/path%3E%3Cpath d=%22M15 11v2%22%3E%3C/path%3E%3Cpath d=%22M20 12h2%22%3E%3C/path%3E%3C/svg%3E" preserveAspectRatio="none" style="filter:drop-shadow(0px 5px 6px black) drop-shadow(0px 4px 10px black)" clip-path="url(#satori_cp-id-0)" mask="url(#satori_om-id-0)"/><mask id="satori_om-id-0-0"><rect x="0" y="0" width="0" height="512" fill="#fff"/></mask><mask id="satori_om-id-0-1"><rect x="0" y="0" width="0" height="512" fill="#fff"/></mask><mask id="satori_om-id-0-2"><rect x="0" y="0" width="0" height="512" fill="#fff"/></mask><mask id="satori_om-id-0-3"><rect x="0" y="0" width="0" height="512" fill="#fff"/></mask><mask id="satori_om-id-0-4"><rect x="0" y="0" width="0" height="512" fill="#fff"/></mask><mask id="satori_om-id-0-5"><rect x="0" y="0" width="0" height="512" fill="#fff"/></mask></svg>