<svg width="512" height="512" viewBox="0 0 512 512" xmlns="http://www.w3.org/2000/svg"><defs><pattern id="satori_pattern_id_0" x="0" y="0" width="1" height="1" patternUnits="objectBoundingBox"><radialGradient id="satori_radial_id_0"><stop offset="0" stop-color="#7f22fe"/><stop offset="1" stop-color="#2c1a49"/></radialGradient><mask id="satori_mask_id_0"><rect x="0" y="0" width="512" height="512" fill="#fff"/></mask><rect x="0" y="0" width="512" height="512" fill="#2c1a49"/><circle cx="256" cy="256" width="512" height="512" r="362.03867196751236" fill="url(#satori_radial_id_0)" mask="url(#satori_mask_id_0)"/></pattern></defs><mask id="satori_om-id"><rect x="0" y="0" width="512" height="512" fill="#fff"/></mask><rect x="0" y="0" width="512" height="512" fill="url(#satori_pattern_id_0)"/><clipPath id="satori_cp-id-0"><rect x="128" y="128" width="256" height="256"/></clipPath><mask id="satori_om-id-0"><rect x="128" y="128" width="256" height="256" fill="#fff"/></mask><image x="128" y="128" width="256" height="256" href="data:image/svg+xml;utf8,%3Csvg  xmlns=%22http://www.w3.org/2000/svg%22 fill=%22none%22 stroke=%22%23e0d4ff%22 stroke-width=%222%22 stroke-linecap=%22round%22 stroke-linejoin=%22round%22 width=%22NaN%22 height=%22NaN%22 viewBox=%220 0 24 24%22%3E%3Cpath d=%22M12 6V2H8%22%3E%3C/path%3E%3Cpath d=%22m8 18-4 4V8a2 2 0 0 1 2-2h12a2 2 0 0 1 2 2v8a2 2 0 0 1-2 2Z%22%3E%3C/path%3E%3Cpath d=%22M2 12h2%22%3E%3C/path%3E%3Cpath d=%22M9 11v2%22%3E%3C/path%3E%3Cpath d=%22M15 11v2%22%3E%3C/path%3E%3Cpath d=%22M20 12h2%22%3E%3C/path%3E%3C/svg%3E" preserveAspectRatio="none" clip-path="url(#satori_cp-id-0)" mask="url(#satori_om-id-0)"/><mask id="satori_om-id-0-0"><rect x="128" y="128" width="0" height="256" fill="#fff"/></mask><mask id="satori_om-id-0-1"><rect x="128" y="128" width="0" height="256" fill="#fff"/></mask><mask id="satori_om-id-0-2"><rect x="128" y="128" width="0" height="256" fill="#fff"/></mask><mask id="satori_om-id-0-3"><rect x="128" y="128" width="0" height="256" fill="#fff"/></mask><mask id="satori_om-id-0-4"><rect x="128" y="128" width="0" height="256" fill="#fff"/></mask><mask id="satori_om-id-0-5"><rect x="128" y="128" width="0" height="256" fill="#fff"/></mask></svg>